<svg width="64" height="64" viewBox="0 0 64 64" fill="none" xmlns="http://www.w3.org/2000/svg">
<path fill-rule="evenodd" clip-rule="evenodd" d="M32.628 16.1922C32.3572 16.1922 32.084 16.1578 31.9142 16.1233C31.8822 15.9879 31.8132 15.5498 31.8132 15.1436C31.8132 12.3399 33.2729 9.57071 34.8015 7.81317C36.8052 5.51655 40.0963 3.79348 42.7794 3.69255C42.8483 3.99532 42.8828 4.40148 42.8828 4.77317C42.8828 7.5424 41.6939 10.3141 40.0643 12.3399C38.2305 14.5356 35.1068 16.1922 32.628 16.1922ZM52.7289 22.1713C52.4237 22.4076 46.8877 25.5166 46.8877 32.4753C46.8877 40.5147 53.9499 43.3529 54.1542 43.4218C54.1197 43.6236 52.9997 47.3061 50.42 51.1239C48.0766 54.4347 45.6668 57.7799 41.9646 57.7799C38.2649 57.7799 37.3148 55.6507 33.0686 55.6507C28.8594 55.6507 27.3652 57.8464 24.0052 57.8464C20.6083 57.8464 18.2329 54.7719 15.5499 50.9886C12.4262 46.4962 9.84647 39.5695 9.84647 33.0144C9.84647 22.5086 16.7388 16.9012 23.5277 16.9012C27.0945 16.9012 30.1148 19.2667 32.3572 19.2667C34.4963 19.2667 37.8563 16.7658 41.9646 16.7658C43.5277 16.7658 49.0957 16.9012 52.7289 22.1713Z" fill="#606062"/>
</svg>
