<svg width="64" height="64" viewBox="0 0 64 64" fill="none" xmlns="http://www.w3.org/2000/svg">
<path fill-rule="evenodd" clip-rule="evenodd" d="M44.8 11.0345H19.2C16.3644 11.0345 14.4368 11.0371 12.9469 11.1588C11.4956 11.2774 10.7534 11.4923 10.2356 11.7561C8.98989 12.3908 7.97705 13.4037 7.3423 14.6494C7.0785 15.1672 6.86357 15.9094 6.745 17.3607C6.62326 18.8506 6.62069 20.7782 6.62069 23.6138V40.3862C6.62069 43.2218 6.62326 45.1494 6.745 46.6393C6.86357 48.0906 7.0785 48.8328 7.3423 49.3506C7.97705 50.5963 8.98989 51.6092 10.2356 52.2439C10.7534 52.5077 11.4956 52.7226 12.9469 52.8412C14.4368 52.9629 16.3644 52.9655 19.2 52.9655H44.8C47.6356 52.9655 49.5632 52.9629 51.0531 52.8412C52.5044 52.7226 53.2466 52.5077 53.7644 52.2439C55.0101 51.6092 56.0229 50.5963 56.6577 49.3506C56.9215 48.8328 57.1364 48.0906 57.255 46.6393C57.3767 45.1494 57.3793 43.2218 57.3793 40.3862V23.6138C57.3793 20.7782 57.3767 18.8506 57.255 17.3607C57.1364 15.9094 56.9215 15.1672 56.6577 14.6494C56.0229 13.4037 55.0101 12.3908 53.7644 11.7561C53.2466 11.4923 52.5044 11.2774 51.0531 11.1588C49.5632 11.0371 47.6356 11.0345 44.8 11.0345ZM4.39276 13.1466C3.31034 15.2709 3.31034 18.0519 3.31034 23.6138V40.3862C3.31034 45.9481 3.31034 48.7291 4.39276 50.8534C5.34488 52.7221 6.86414 54.2413 8.73278 55.1934C10.8571 56.2759 13.6381 56.2759 19.2 56.2759H44.8C50.3619 56.2759 53.1429 56.2759 55.2672 55.1934C57.1359 54.2413 58.6551 52.7221 59.6072 50.8534C60.6897 48.7291 60.6897 45.9481 60.6897 40.3862V23.6138C60.6897 18.0519 60.6897 15.2709 59.6072 13.1466C58.6551 11.2779 57.1359 9.75868 55.2672 8.80655C53.1429 7.72414 50.3619 7.72414 44.8 7.72414H19.2C13.6381 7.72414 10.8571 7.72414 8.73278 8.80655C6.86414 9.75868 5.34488 11.2779 4.39276 13.1466Z" fill="#28282A"/>
<path d="M19.8621 29.7931H45.2414V33.1034H19.8621V29.7931Z" fill="#28282A"/>
<path d="M30.8966 18.7586H34.2069V44.1379H30.8966V18.7586Z" fill="#28282A"/>
</svg>
