<svg width="64" height="64" viewBox="0 0 64 64" fill="none" xmlns="http://www.w3.org/2000/svg">
<path fill-rule="evenodd" clip-rule="evenodd" d="M4.39277 13.1466C3.31035 15.2709 3.31035 18.0519 3.31035 23.6138V40.3862C3.31035 45.9481 3.31035 48.7291 4.39277 50.8534C5.34489 52.7221 6.86414 54.2413 8.73279 55.1934C10.8572 56.2759 13.6381 56.2759 19.2 56.2759H44.8C50.3619 56.2759 53.1429 56.2759 55.2672 55.1934C57.1359 54.2413 58.6551 52.7221 59.6072 50.8534C60.6897 48.7291 60.6897 45.9481 60.6897 40.3862V23.6138C60.6897 18.0519 60.6897 15.2709 59.6072 13.1466C58.6551 11.2779 57.1359 9.75868 55.2672 8.80656C53.1429 7.72414 50.3619 7.72414 44.8 7.72414H19.2C13.6381 7.72414 10.8572 7.72414 8.73279 8.80656C6.86414 9.75868 5.34489 11.2779 4.39277 13.1466ZM34.2069 18.7586H30.8966V29.7931H19.8621V33.1035H30.8966V44.1379H34.2069V33.1035H45.2414V29.7931H34.2069V18.7586Z" fill="#28282A"/>
</svg>
