<svg width="64" height="64" viewBox="0 0 64 64" fill="none" xmlns="http://www.w3.org/2000/svg">
<path fill-rule="evenodd" clip-rule="evenodd" d="M3.80082 10.1812C3.31034 11.1438 3.31034 12.4039 3.31034 14.9241V49.0759C3.31034 51.5961 3.31034 52.8562 3.80082 53.8188C4.23225 54.6656 4.92066 55.354 5.76739 55.7854C6.72999 56.2759 7.99011 56.2759 10.5104 56.2759H53.4897C56.0099 56.2759 57.27 56.2759 58.2326 55.7854C59.0793 55.354 59.7678 54.6656 60.1992 53.8188C60.6897 52.8562 60.6897 51.5961 60.6897 49.0759V14.9241C60.6897 12.4039 60.6897 11.1438 60.1992 10.1812C59.7678 9.33445 59.0793 8.64604 58.2326 8.21461C57.27 7.72414 56.0099 7.72414 53.4896 7.72414H10.5103C7.99011 7.72414 6.72999 7.72414 5.76739 8.21461C4.92066 8.64604 4.23225 9.33445 3.80082 10.1812ZM34.2069 18.7586H30.8966V29.7931H19.8621V33.1034H30.8966V44.1379H34.2069V33.1034H45.2414V29.7931H34.2069V18.7586Z" fill="#28282A"/>
</svg>
