<svg width="64" height="64" viewBox="0 0 64 64" fill="none" xmlns="http://www.w3.org/2000/svg">
<path fill-rule="evenodd" clip-rule="evenodd" d="M32 12.1379C21.0305 12.1379 12.1379 21.0305 12.1379 32H6.6207C6.6207 17.9834 17.9834 6.62069 32 6.62069C39.1288 6.62069 45.5751 9.56347 50.182 14.2933L46.2297 18.1429C42.6184 14.4353 37.58 12.1379 32 12.1379ZM32 51.8621C42.9695 51.8621 51.8621 42.9695 51.8621 32H57.3793C57.3793 46.0166 46.0166 57.3793 32 57.3793C25.1137 57.3793 18.8632 54.633 14.2933 50.182L18.1429 46.2297C21.7242 49.7179 26.6089 51.8621 32 51.8621Z" fill="#28282A"/>
<path d="M28.6897 28.6897L43.0345 20.9655L35.3104 35.3103L20.9655 43.0345L28.6897 28.6897Z" fill="#28282A"/>
</svg>
