<svg width="64" height="64" viewBox="0 0 64 64" fill="none" xmlns="http://www.w3.org/2000/svg">
<path fill-rule="evenodd" clip-rule="evenodd" d="M32 9.93104C19.8117 9.93104 9.93104 19.8117 9.93104 32H6.6207C6.6207 17.9834 17.9834 6.6207 32 6.6207C39.129 6.6207 45.5738 9.5622 50.182 14.2934L47.8107 16.6032C43.7999 12.4853 38.1997 9.93104 32 9.93104ZM32 54.069C44.1884 54.069 54.069 44.1884 54.069 32H57.3793C57.3793 46.0166 46.0166 57.3793 32 57.3793C25.1133 57.3793 18.8644 54.6342 14.2934 50.182L16.6032 47.8107C20.581 51.6851 26.0104 54.069 32 54.069Z" fill="#28282A"/>
<path d="M29.2414 29.2414L41.931 22.069L34.7586 34.7586L22.069 41.931L29.2414 29.2414Z" fill="#28282A"/>
</svg>
