<svg width="64" height="64" viewBox="0 0 64 64" fill="none" xmlns="http://www.w3.org/2000/svg">
<path fill-rule="evenodd" clip-rule="evenodd" d="M32 52.9655C30.5721 52.9368 25.6022 49.6662 20.6279 44.7404C23.296 34.677 31.9779 11.0345 43.3788 11.0345C49.6618 11.0345 55.1724 16.5076 55.1724 22.7465C55.1724 37.4444 35.1228 52.9059 32 52.9655ZM20.6212 11.0345C23.7109 11.0345 26.8182 12.7823 29.8726 16.1876C23.5961 24.4546 19.5686 36.544 17.9818 41.9421C13.0891 36.4292 8.82759 29.515 8.82759 22.7465C8.82759 16.5076 14.3382 11.0345 20.6212 11.0345ZM43.3788 7.72414C39.0819 7.72414 35.2905 10.0966 32.0177 13.6276C28.4006 9.72358 24.5738 7.72414 20.6212 7.72414C12.4337 7.72414 5.51724 14.603 5.51724 22.7465C5.51724 38.8149 26.5556 56.2759 32 56.2759C37.4444 56.2759 58.4828 38.8149 58.4828 22.7465C58.4828 14.603 51.5663 7.72414 43.3788 7.72414Z" fill="#28282A"/>
</svg>
