<svg width="64" height="64" viewBox="0 0 64 64" fill="none" xmlns="http://www.w3.org/2000/svg">
<path d="M20.6197 7.72303C23.7049 7.72303 26.7129 8.9611 29.6062 11.3534C21.8202 19.9272 16.442 35.627 14.2881 42.7509C9.41748 36.8232 5.51569 29.6596 5.51569 22.7454C5.51569 14.6041 12.4321 7.72303 20.6197 7.72303Z" fill="#28282A"/>
<path d="M16.8775 45.7022C18.4002 40.3902 23.9506 22.5408 32.0146 13.6271C35.2896 10.0961 39.081 7.7237 43.3779 7.7237C51.5655 7.7237 58.4819 14.6026 58.4819 22.746C58.4819 38.8145 37.4413 56.2754 31.9991 56.2754C29.3001 56.2754 22.7765 51.9808 16.8775 45.7022Z" fill="#28282A"/>
</svg>
