<svg width="64" height="64" viewBox="0 0 64 64" fill="none" xmlns="http://www.w3.org/2000/svg">
<path fill-rule="evenodd" clip-rule="evenodd" d="M53.182 5.11205L52.584 2.75068L50.6088 4.17412C46.1729 7.37192 41.3178 8.86599 36.1779 10.4461C28.6413 12.7656 20.8488 15.1623 14.9299 23.3013C8.08851 32.7071 9.74589 45.0966 11.2819 51.5054C12.8422 49.2456 14.7291 46.6569 16.8786 43.8784C23.2256 35.6798 29.5307 30.6238 29.5307 30.6238L31.0424 32.3584C30.7555 32.6034 24.6601 37.8624 19.5048 44.7943C12.5111 54.2001 9.41265 60.6795 9.28244 60.951L12.275 62.3678C12.2926 62.3347 13.2858 60.2602 15.3735 56.8196C28.4891 56.7314 41.8121 55.1314 50.1895 40.9807C58.4035 27.106 53.7404 7.32116 53.182 5.11205Z" fill="#28282A"/>
</svg>
