<svg width="64" height="64" viewBox="0 0 64 64" fill="none" xmlns="http://www.w3.org/2000/svg">
<path fill-rule="evenodd" clip-rule="evenodd" d="M47.3395 39.2953C40.2443 51.2832 29.2937 53.2341 17.4758 53.4835C18.78 51.4862 20.3315 49.2308 22.1632 46.7701C27.1022 40.1273 33.1425 34.9191 33.2021 34.8661L31.0482 32.3524C30.79 32.5731 24.6724 37.8454 19.5061 44.7949C17.6413 47.302 16.0611 49.5927 14.7326 51.6231C13.3158 46.0793 11.2832 33.9436 17.606 25.2506C22.8782 18.001 29.8101 15.8691 37.1502 13.6093C41.5993 12.241 46.1809 10.833 50.4821 8.22444C51.6253 14.0131 53.6247 28.678 47.3395 39.2953ZM53.1811 5.11272L52.5853 2.74913L50.6101 4.17479C46.172 7.37258 41.3169 8.86665 36.177 10.4468C28.6404 12.7662 20.8501 15.1607 14.929 23.302C6.11024 35.4289 11.4156 52.561 12.3756 55.3682C10.3364 58.7491 9.35437 60.7993 9.28375 60.9516L12.2741 62.3684C12.2918 62.3331 13.2871 60.2609 15.3726 56.8181C28.4882 56.7298 41.8112 55.132 50.1886 40.9814C58.4026 27.1066 53.7417 7.32182 53.1811 5.11272Z" fill="#28282A"/>
</svg>
