<svg width="64" height="64" viewBox="0 0 64 64" fill="none" xmlns="http://www.w3.org/2000/svg">
<path fill-rule="evenodd" clip-rule="evenodd" d="M34.2069 51.8543C34.2069 53.0703 33.216 54.0612 32 54.0612C30.784 54.0612 29.7931 53.0703 29.7931 51.8543C29.7931 51.4262 29.9476 51.0488 30.1594 50.709C30.773 50.7266 31.3843 50.7509 32 50.7509C32.6157 50.7509 33.227 50.7266 33.8406 50.709C34.0524 51.0488 34.2069 51.4262 34.2069 51.8543ZM18.7586 34.5302V23.1647C18.7586 16.1159 24.9468 9.92993 32 9.92993C39.0532 9.92993 45.2414 16.1159 45.2414 23.1647V34.5302C45.2414 38.3481 46.347 42.0513 48.3686 45.2072C43.0654 46.6902 37.5768 47.4405 32 47.4405C26.4232 47.4405 20.9368 46.6902 15.6314 45.2072C17.653 42.0513 18.7586 38.3481 18.7586 34.5302ZM54.069 46.8425C50.56 43.7131 48.5517 39.2331 48.5517 34.5302V23.1647C48.5517 14.3371 40.8276 6.61958 32 6.61958C23.1724 6.61958 15.4483 14.3371 15.4483 23.1647V34.5302C15.4483 39.2331 13.44 43.7131 9.93103 46.8425C15.2188 48.7845 20.8331 50.0425 26.6681 50.5236C26.56 50.9517 26.4828 51.3931 26.4828 51.8543C26.4828 54.9021 28.9523 57.3716 32 57.3716C35.0477 57.3716 37.5172 54.9021 37.5172 51.8543C37.5172 51.3931 37.44 50.9517 37.3319 50.5236C43.1669 50.0425 48.7812 48.7845 54.069 46.8425Z" fill="#28282A"/>
</svg>
