<svg width="64" height="64" viewBox="0 0 64 64" fill="none" xmlns="http://www.w3.org/2000/svg">
<path fill-rule="evenodd" clip-rule="evenodd" d="M48.5517 34.5324C48.5517 39.2331 50.56 43.7131 54.069 46.8425C47.1901 49.3694 39.7572 50.7509 32 50.7509C24.2428 50.7509 16.8099 49.3694 9.93103 46.8425C13.44 43.7131 15.4483 39.2331 15.4483 34.5324V23.1647C15.4483 14.3371 23.1724 6.61959 32 6.61959C40.8276 6.61959 48.5517 14.3371 48.5517 23.1647V34.5324ZM31.9991 57.3718C29.2493 57.3718 26.9873 55.3525 26.5702 52.7175C28.3622 52.8631 30.1696 52.958 31.9991 52.958C33.8308 52.958 35.6383 52.8631 37.4303 52.7175C37.0132 55.3525 34.7511 57.3718 31.9991 57.3718Z" fill="#28282A"/>
</svg>
