<svg width="64" height="64" viewBox="0 0 64 64" fill="none" xmlns="http://www.w3.org/2000/svg">
<path fill-rule="evenodd" clip-rule="evenodd" d="M22.731 11.0345H18.0966C16.806 11.0345 16.0371 11.0371 15.4672 11.0836C15.1193 11.112 14.9731 11.1495 14.9339 11.1617C14.7369 11.2655 14.5759 11.4265 14.4721 11.6236C14.4599 11.6627 14.4224 11.809 14.394 12.1568C14.3474 12.7267 14.3448 13.4956 14.3448 14.7862V23.8345C14.3448 25.1251 14.3474 25.8939 14.394 26.4639C14.4224 26.8117 14.4599 26.9579 14.4721 26.9971C14.5759 27.1942 14.7369 27.3552 14.9339 27.459C14.9731 27.4711 15.1193 27.5086 15.4672 27.5371C16.0371 27.5836 16.806 27.5862 18.0966 27.5862H22.731C24.0216 27.5862 24.7905 27.5836 25.3604 27.5371C25.7083 27.5086 25.8545 27.4711 25.8937 27.459C26.0907 27.3552 26.2517 27.1942 26.3555 26.9971C26.3677 26.9579 26.4052 26.8117 26.4336 26.4639C26.4802 25.8939 26.4828 25.1251 26.4828 23.8345V14.7862C26.4828 13.4956 26.4802 12.7267 26.4336 12.1568C26.4052 11.809 26.3677 11.6627 26.3555 11.6236C26.2517 11.4265 26.0907 11.2655 25.8937 11.1617C25.8545 11.1495 25.7083 11.112 25.3604 11.0836C24.7905 11.0371 24.0216 11.0345 22.731 11.0345ZM11.5156 10.1341C11.0345 11.0783 11.0345 12.3142 11.0345 14.7862V23.8345C11.0345 26.3064 11.0345 27.5424 11.5156 28.4866C11.9387 29.3171 12.6139 29.9923 13.4445 30.4155C14.3886 30.8965 15.6246 30.8965 18.0966 30.8965H22.731C25.203 30.8965 26.439 30.8965 27.3831 30.4155C28.2136 29.9923 28.8889 29.3171 29.312 28.4866C29.7931 27.5424 29.7931 26.3064 29.7931 23.8345V14.7862C29.7931 12.3142 29.7931 11.0783 29.312 10.1341C28.8889 9.3036 28.2136 8.62838 27.3831 8.20521C26.439 7.72414 25.203 7.72414 22.731 7.72414H18.0966C15.6246 7.72414 14.3886 7.72414 13.4445 8.20521C12.6139 8.62838 11.9387 9.3036 11.5156 10.1341Z" fill="#28282A"/>
<path fill-rule="evenodd" clip-rule="evenodd" d="M45.9035 11.0345H41.269C39.9784 11.0345 39.2095 11.0371 38.6396 11.0836C38.2917 11.112 38.1455 11.1495 38.1063 11.1617C37.9093 11.2655 37.7483 11.4265 37.6445 11.6236C37.6323 11.6627 37.5948 11.809 37.5664 12.1568C37.5198 12.7267 37.5172 13.4956 37.5172 14.7862V23.8345C37.5172 25.1251 37.5198 25.8939 37.5664 26.4639C37.5948 26.8117 37.6323 26.9579 37.6445 26.9971C37.7483 27.1942 37.9093 27.3552 38.1063 27.459C38.1455 27.4711 38.2917 27.5086 38.6396 27.5371C39.2095 27.5836 39.9784 27.5862 41.269 27.5862H45.9035C47.1941 27.5862 47.9629 27.5836 48.5329 27.5371C48.8807 27.5086 49.0269 27.4711 49.0661 27.459C49.2631 27.3552 49.4241 27.1942 49.528 26.9971C49.5401 26.9579 49.5776 26.8117 49.606 26.4639C49.6526 25.8939 49.6552 25.1251 49.6552 23.8345V14.7862C49.6552 13.4956 49.6526 12.7267 49.606 12.1568C49.5776 11.809 49.5401 11.6627 49.528 11.6236C49.4241 11.4265 49.2631 11.2655 49.0661 11.1617C49.0269 11.1495 48.8807 11.112 48.5329 11.0836C47.9629 11.0371 47.1941 11.0345 45.9035 11.0345ZM34.688 10.1341C34.2069 11.0783 34.2069 12.3142 34.2069 14.7862V23.8345C34.2069 26.3064 34.2069 27.5424 34.688 28.4866C35.1111 29.3171 35.7864 29.9923 36.6169 30.4155C37.561 30.8965 38.797 30.8965 41.269 30.8965H45.9035C48.3754 30.8965 49.6114 30.8965 50.5556 30.4155C51.3861 29.9923 52.0613 29.3171 52.4844 28.4866C52.9655 27.5424 52.9655 26.3064 52.9655 23.8345V14.7862C52.9655 12.3142 52.9655 11.0783 52.4844 10.1341C52.0613 9.3036 51.3861 8.62838 50.5556 8.20521C49.6114 7.72414 48.3754 7.72414 45.9035 7.72414H41.269C38.797 7.72414 37.561 7.72414 36.6169 8.20521C35.7864 8.62838 35.1111 9.3036 34.688 10.1341Z" fill="#28282A"/>
<path fill-rule="evenodd" clip-rule="evenodd" d="M33.7655 38.6207H30.2345C28.9439 38.6207 28.175 38.6233 27.6051 38.6698C27.2572 38.6982 27.111 38.7358 27.0718 38.7479C26.8748 38.8517 26.7138 39.0127 26.61 39.2098C26.5978 39.249 26.5603 39.3952 26.5319 39.743C26.4853 40.3129 26.4828 41.0818 26.4828 42.3724V51.4207C26.4828 52.7113 26.4853 53.4801 26.5319 54.0501C26.5603 54.3979 26.5978 54.5441 26.61 54.5833C26.7138 54.7804 26.8748 54.9414 27.0718 55.0452C27.111 55.0574 27.2572 55.0949 27.6051 55.1233C28.175 55.1698 28.9439 55.1724 30.2345 55.1724H33.7655C35.0561 55.1724 35.825 55.1698 36.3949 55.1233C36.7428 55.0949 36.889 55.0574 36.9282 55.0452C37.1252 54.9414 37.2862 54.7804 37.39 54.5833C37.4022 54.5441 37.4397 54.3979 37.4681 54.0501C37.5147 53.4801 37.5172 52.7113 37.5172 51.4207V42.3724C37.5172 41.0818 37.5147 40.3129 37.4681 39.743C37.4397 39.3952 37.4022 39.249 37.39 39.2098C37.2862 39.0127 37.1252 38.8517 36.9282 38.7479C36.889 38.7358 36.7428 38.6982 36.3949 38.6698C35.825 38.6233 35.0561 38.6207 33.7655 38.6207ZM23.6535 37.7203C23.1724 38.6645 23.1724 39.9005 23.1724 42.3724V51.4207C23.1724 53.8926 23.1724 55.1286 23.6535 56.0728C24.0767 56.9033 24.7519 57.5785 25.5824 58.0017C26.5266 58.4828 27.7625 58.4828 30.2345 58.4828H33.7655C36.2375 58.4828 37.4735 58.4828 38.4176 58.0017C39.2481 57.5785 39.9234 56.9033 40.3465 56.0728C40.8276 55.1286 40.8276 53.8926 40.8276 51.4207V42.3724C40.8276 39.9005 40.8276 38.6645 40.3465 37.7203C39.9234 36.8898 39.2481 36.2146 38.4176 35.7914C37.4735 35.3103 36.2375 35.3103 33.7655 35.3103H30.2345C27.7625 35.3103 26.5266 35.3103 25.5824 35.7914C24.7519 36.2146 24.0767 36.8898 23.6535 37.7203Z" fill="#28282A"/>
</svg>
