<svg width="64" height="64" viewBox="0 0 64 64" fill="none" xmlns="http://www.w3.org/2000/svg">
<path d="M11.0345 14.7862C11.0345 12.3142 11.0345 11.0783 11.5156 10.1341C11.9387 9.3036 12.6139 8.62838 13.4445 8.20521C14.3886 7.72414 15.6246 7.72414 18.0966 7.72414H22.731C25.203 7.72414 26.439 7.72414 27.3831 8.20521C28.2136 8.62838 28.8889 9.3036 29.312 10.1341C29.7931 11.0783 29.7931 12.3142 29.7931 14.7862V23.8345C29.7931 26.3064 29.7931 27.5424 29.312 28.4866C28.8889 29.3171 28.2136 29.9923 27.3831 30.4155C26.439 30.8965 25.203 30.8965 22.731 30.8965H18.0966C15.6246 30.8965 14.3886 30.8965 13.4445 30.4155C12.6139 29.9923 11.9387 29.3171 11.5156 28.4866C11.0345 27.5424 11.0345 26.3064 11.0345 23.8345V14.7862Z" fill="#28282A"/>
<path d="M34.2069 14.7862C34.2069 12.3142 34.2069 11.0783 34.688 10.1341C35.1111 9.3036 35.7864 8.62838 36.6169 8.20521C37.561 7.72414 38.797 7.72414 41.269 7.72414H45.9035C48.3754 7.72414 49.6114 7.72414 50.5556 8.20521C51.3861 8.62838 52.0613 9.3036 52.4844 10.1341C52.9655 11.0783 52.9655 12.3142 52.9655 14.7862V23.8345C52.9655 26.3064 52.9655 27.5424 52.4844 28.4866C52.0613 29.3171 51.3861 29.9923 50.5556 30.4155C49.6114 30.8965 48.3754 30.8965 45.9035 30.8965H41.269C38.797 30.8965 37.561 30.8965 36.6169 30.4155C35.7864 29.9923 35.1111 29.3171 34.688 28.4866C34.2069 27.5424 34.2069 26.3064 34.2069 23.8345V14.7862Z" fill="#28282A"/>
<path d="M23.1724 42.3724C23.1724 39.9005 23.1724 38.6645 23.6535 37.7203C24.0767 36.8898 24.7519 36.2146 25.5824 35.7914C26.5266 35.3103 27.7625 35.3103 30.2345 35.3103H33.7655C36.2375 35.3103 37.4735 35.3103 38.4176 35.7914C39.2481 36.2146 39.9234 36.8898 40.3465 37.7203C40.8276 38.6645 40.8276 39.9005 40.8276 42.3724V51.4207C40.8276 53.8926 40.8276 55.1286 40.3465 56.0728C39.9234 56.9033 39.2481 57.5785 38.4176 58.0017C37.4735 58.4828 36.2375 58.4828 33.7655 58.4828H30.2345C27.7625 58.4828 26.5266 58.4828 25.5824 58.0017C24.7519 57.5785 24.0767 56.9033 23.6535 56.0728C23.1724 55.1286 23.1724 53.8926 23.1724 51.4207V42.3724Z" fill="#28282A"/>
</svg>
