<svg width="64" height="64" viewBox="0 0 64 64" fill="none" xmlns="http://www.w3.org/2000/svg">
<path fill-rule="evenodd" clip-rule="evenodd" d="M20.2667 64C19.4208 64 18.5749 64 17.7291 63.9851C16.6869 63.9669 15.6405 63.9264 14.5968 63.8352C13.2549 63.7179 11.872 63.5125 10.5056 63.1467C9.35787 62.8389 8.0384 62.3691 6.74347 61.6213C6.00907 61.1973 5.11573 60.5877 4.264 59.736C3.41227 58.8843 2.8032 57.9909 2.37867 57.2565C1.63147 55.9616 1.16107 54.6421 0.853333 53.4944C0.487467 52.128 0.282667 50.7451 0.165333 49.4037C0.0736 48.3595 0.0330667 47.3136 0.0149333 46.2709C0 45.4251 0 44.5792 0 43.7333V20.2667C0 19.4208 0 18.5749 0.0149333 17.7291C0.0330667 16.6869 0.0736 15.6405 0.165333 14.5968C0.282667 13.2549 0.487467 11.8725 0.853333 10.5056C1.16107 9.35787 1.63147 8.0384 2.37867 6.744C2.8032 6.00907 3.41227 5.11573 4.264 4.264C5.11573 3.4128 6.00907 2.8032 6.74347 2.3792C8.0384 1.63147 9.35787 1.16107 10.5056 0.853867C11.872 0.487467 13.2549 0.282667 14.5968 0.165333C15.6405 0.0736 16.6869 0.0330667 17.7291 0.0149333C18.5749 0 19.4208 0 20.2667 0H43.7333C44.5792 0 45.4251 0 46.2709 0.0149333C47.3131 0.0330667 48.3595 0.0736 49.4032 0.165333C50.7451 0.282667 52.128 0.487467 53.4944 0.853867C54.6421 1.16107 55.9616 1.63147 57.2565 2.3792C57.9909 2.8032 58.8843 3.4128 59.736 4.264C60.5877 5.11573 61.1968 6.00907 61.6213 6.744C62.3685 8.0384 62.8389 9.35787 63.1467 10.5056C63.5125 11.8725 63.7173 13.2549 63.8352 14.5968C63.9264 15.6405 63.9669 16.6869 63.9851 17.7291C64 18.5749 64 19.4208 64 20.2667V43.7333C64 44.5792 64 45.4251 63.9851 46.2709C63.9669 47.3131 63.9264 48.3595 63.8352 49.4032C63.7173 50.7451 63.5125 52.128 63.1467 53.4944C62.8389 54.6421 62.3685 55.9616 61.6213 57.2565C61.1968 57.9909 60.5877 58.8843 59.736 59.736C58.8843 60.5877 57.9909 61.1973 57.2565 61.6213C55.9616 62.3685 54.6421 62.8389 53.4944 63.1467C52.128 63.5125 50.7451 63.7179 49.4032 63.8352C48.3595 63.9264 47.3131 63.9669 46.2709 63.9851C45.4251 64 44.5792 64 43.7333 64H20.2667Z" fill="#E2E2E6"/>
<path d="M20.3228 63.3333H43.6772C44.3078 63.3333 44.5879 63.333 44.9377 63.3315C45.3986 63.3294 45.8053 63.3254 46.1938 63.3185C47.3461 63.2985 48.3348 63.2534 49.2752 63.1713C50.7171 63.0452 52.0277 62.8312 53.2586 62.5016C54.551 62.1551 55.7613 61.6797 56.8789 61.0349C57.7301 60.5434 58.5246 59.9558 59.2402 59.2402C59.9551 58.5253 60.5417 57.7321 61.0348 56.8791C61.6798 55.7613 62.1551 54.551 62.5016 53.2588C62.8307 52.0295 63.0443 50.7205 63.1713 49.2753C63.2534 48.3348 63.2985 47.3461 63.3186 46.1936C63.3274 45.6916 63.3315 45.1703 63.3328 44.518C63.3332 44.2847 63.3333 44.0978 63.3333 43.6772V20.3228C63.3333 19.0631 63.3309 18.5039 63.3186 17.8062C63.2985 16.6539 63.2534 15.6652 63.1713 14.725C63.0444 13.2799 62.8308 11.9712 62.5016 10.7414C62.155 9.44885 61.6797 8.23873 61.0349 7.12169C60.542 6.26845 59.9553 5.47496 59.2403 4.75995C58.5246 4.04467 57.7299 3.45697 56.8789 2.96566C55.761 2.32013 54.5504 1.84469 53.2586 1.49892C52.0291 1.16923 50.7199 0.955577 49.275 0.829238C48.3355 0.746661 47.3478 0.701533 46.1936 0.68145C45.8053 0.674593 45.3986 0.670555 44.9377 0.668521C44.5879 0.666977 44.3078 0.666668 43.6772 0.666668H20.3228C19.0631 0.666668 18.5039 0.669136 17.8062 0.681452C16.6522 0.701533 15.6645 0.746661 14.7248 0.829258C13.2801 0.955577 11.971 1.16923 10.7412 1.49899C9.44961 1.84469 8.23903 2.32013 7.12106 2.96568C6.27011 3.45697 5.47545 4.04467 4.75984 4.75983C4.0447 5.47496 3.45796 6.26845 2.96517 7.12156C2.32027 8.23873 1.84496 9.44885 1.49846 10.7412C1.16905 11.9719 0.955484 13.2812 0.829242 14.725C0.746665 15.6645 0.701536 16.6522 0.681454 17.8064C0.66914 18.5039 0.666672 19.0631 0.666672 20.3228V43.6772C0.666672 44.0978 0.666763 44.2847 0.667221 44.518C0.668501 45.1703 0.672591 45.6916 0.681456 46.1938C0.701527 47.3479 0.746644 48.3353 0.829261 49.2758C0.955541 50.7194 1.16914 52.0289 1.4984 53.2586C1.84493 54.551 2.32025 55.7613 2.96501 56.8787C3.45833 57.7321 4.04492 58.5253 4.75984 59.2402C5.47543 59.9558 6.26987 60.5434 7.12109 61.0349C8.23805 61.6798 9.44727 62.1546 10.7412 62.5016C11.9723 62.8312 13.2829 63.0452 14.7247 63.1713C15.6652 63.2534 16.6539 63.2985 17.8064 63.3186C18.5039 63.3309 19.0631 63.3333 20.3228 63.3333Z" fill="white"/>
<path fill-rule="evenodd" clip-rule="evenodd" d="M32.9284 22.7097L21.9018 11.681C17.2113 14.0181 13.4456 17.9159 11.2923 22.7097H32.9284Z" fill="#FF7D1F"/>
<path fill-rule="evenodd" clip-rule="evenodd" d="M41.2903 32.9284L52.319 21.8998C49.9819 17.2113 46.0841 13.4456 41.2903 11.2923V32.9284Z" fill="#6368FF"/>
<path fill-rule="evenodd" clip-rule="evenodd" d="M38.5695 38.5695L37.913 39.226H53.5166C54.2784 36.953 54.7099 34.5292 54.7099 32.0002C54.7099 29.1532 54.1628 26.4405 53.2069 23.9321L38.5695 38.5695Z" fill="#5488FF"/>
<path fill-rule="evenodd" clip-rule="evenodd" d="M38.5695 25.4305L39.226 26.087V10.4834C36.953 9.7216 34.5292 9.29012 32.0002 9.29012C29.1532 9.29012 26.4405 9.83721 23.9321 10.7931L38.5695 25.4305Z" fill="#FF504F"/>
<path fill-rule="evenodd" clip-rule="evenodd" d="M25.4305 25.4315L26.087 24.775H10.4834C9.7216 27.046 9.29012 29.4718 9.29012 32.0008C9.29012 34.8457 9.83721 37.5585 10.7931 40.069L25.4305 25.4315Z" fill="#FFC917"/>
<path fill-rule="evenodd" clip-rule="evenodd" d="M31.0716 41.2903L42.1002 52.319C46.7887 49.9819 50.5544 46.0841 52.7077 41.2903H31.0716Z" fill="#02B0FF"/>
<path fill-rule="evenodd" clip-rule="evenodd" d="M25.4315 38.5695L24.775 37.913V53.5166C27.046 54.2784 29.4718 54.7099 32.0008 54.7099C34.8457 54.7099 37.5585 54.1628 40.069 53.2069L25.4315 38.5695Z" fill="#66D61D"/>
<path fill-rule="evenodd" clip-rule="evenodd" d="M22.7097 31.0716L11.681 42.0982C14.0181 46.7887 17.9159 50.5544 22.7097 52.7077V31.0716Z" fill="#99D51A"/>
</svg>
