<svg width="64" height="64" viewBox="0 0 64 64" fill="none" xmlns="http://www.w3.org/2000/svg">
<path fill-rule="evenodd" clip-rule="evenodd" d="M20.2667 64C19.4208 64 18.5749 64 17.7291 63.9851C16.6869 63.9669 15.6405 63.9264 14.5968 63.8352C13.2549 63.7179 11.872 63.5125 10.5056 63.1467C9.35787 62.8389 8.0384 62.3691 6.74347 61.6213C6.00907 61.1973 5.11573 60.5877 4.264 59.736C3.41227 58.8843 2.8032 57.9909 2.37867 57.2565C1.63147 55.9616 1.16107 54.6421 0.853333 53.4944C0.487467 52.128 0.282667 50.7451 0.165333 49.4037C0.0736 48.3595 0.0330667 47.3136 0.0149333 46.2709C0 45.4251 0 44.5792 0 43.7333V20.2667C0 19.4208 0 18.5749 0.0149333 17.7291C0.0330667 16.6869 0.0736 15.6405 0.165333 14.5968C0.282667 13.2549 0.487467 11.8725 0.853333 10.5056C1.16107 9.35787 1.63147 8.0384 2.37867 6.744C2.8032 6.00907 3.41227 5.11573 4.264 4.264C5.11573 3.4128 6.00907 2.8032 6.74347 2.3792C8.0384 1.63147 9.35787 1.16107 10.5056 0.853867C11.872 0.487467 13.2549 0.282667 14.5968 0.165333C15.6405 0.0736 16.6869 0.0330667 17.7291 0.0149333C18.5749 0 19.4208 0 20.2667 0H43.7333C44.5792 0 45.4251 0 46.2709 0.0149333C47.3131 0.0330667 48.3595 0.0736 49.4032 0.165333C50.7451 0.282667 52.128 0.487467 53.4944 0.853867C54.6421 1.16107 55.9616 1.63147 57.2565 2.3792C57.9909 2.8032 58.8843 3.4128 59.736 4.264C60.5877 5.11573 61.1968 6.00907 61.6213 6.744C62.3685 8.0384 62.8389 9.35787 63.1467 10.5056C63.5125 11.8725 63.7173 13.2549 63.8352 14.5968C63.9264 15.6405 63.9669 16.6869 63.9851 17.7291C64 18.5749 64 19.4208 64 20.2667V43.7333C64 44.5792 64 45.4251 63.9851 46.2709C63.9669 47.3131 63.9264 48.3595 63.8352 49.4032C63.7173 50.7451 63.5125 52.128 63.1467 53.4944C62.8389 54.6421 62.3685 55.9616 61.6213 57.2565C61.1968 57.9909 60.5877 58.8843 59.736 59.736C58.8843 60.5877 57.9909 61.1973 57.2565 61.6213C55.9616 62.3685 54.6421 62.8389 53.4944 63.1467C52.128 63.5125 50.7451 63.7179 49.4032 63.8352C48.3595 63.9264 47.3131 63.9669 46.2709 63.9851C45.4251 64 44.5792 64 43.7333 64H20.2667Z" fill="#FFF1AF"/>
<path fill-rule="evenodd" clip-rule="evenodd" d="M7.32733 40.5636C8.38708 49.1636 18.8351 55.1584 32.6448 52.6686C44.8611 50.4664 53.8283 42.0614 51.9386 35.0141C50.5331 29.7719 45.1123 30.5766 44.9686 29.2836C44.8816 28.4996 47.0871 24.9501 45.0666 22.0894C41.6586 17.2631 33.2616 23.5521 32.3573 22.9874C31.2436 22.2919 35.1101 17.1014 30.1793 14.9881C23.8528 12.2769 5.64933 26.9484 7.32733 40.5636Z" fill="#F12B34"/>
<path fill-rule="evenodd" clip-rule="evenodd" d="M43.6269 38.0133C44.0936 43.9103 37.2659 49.2613 28.3761 49.9653C19.4861 50.6693 11.9014 46.4593 11.4341 40.5623C10.9671 34.6653 17.7954 29.3141 26.6849 28.6103C35.5749 27.9063 43.1599 32.1161 43.6269 38.0133Z" fill="#FEFFFF"/>
<path fill-rule="evenodd" clip-rule="evenodd" d="M34.8134 38.4648C35.7169 42.4803 32.7094 46.5773 28.0957 47.6155C23.4819 48.6535 19.0094 46.2398 18.1059 42.224C17.2024 38.2085 20.2099 34.1115 24.8237 33.0735C29.4374 32.0353 33.9099 34.4493 34.8134 38.4648Z" fill="#121212"/>
<path fill-rule="evenodd" clip-rule="evenodd" d="M26.3332 40.9213C26.8452 42.2483 26.1157 43.7655 24.7037 44.31C23.2919 44.8543 21.7327 44.22 21.2209 42.8933C20.7089 41.566 21.4384 40.049 22.8502 39.5045C24.2622 38.9598 25.8214 39.5943 26.3332 40.9213Z" fill="#FEFFFF"/>
<path fill-rule="evenodd" clip-rule="evenodd" d="M29.6122 38.8195C29.821 39.3607 29.51 39.9847 28.9177 40.2132C28.3252 40.4417 27.6757 40.1882 27.467 39.647C27.2582 39.1057 27.5692 38.4815 28.1615 38.253C28.754 38.0245 29.4035 38.2782 29.6122 38.8195Z" fill="#FEFFFF"/>
<path fill-rule="evenodd" clip-rule="evenodd" d="M50.703 25.4021C50.5505 25.4021 50.3955 25.3819 50.241 25.3399C49.3098 25.0854 48.7608 24.1239 49.0153 23.1924C49.1163 22.8231 49.1673 22.4389 49.1673 22.0506C49.1673 19.6679 47.229 17.7294 44.846 17.7294C44.6978 17.7294 44.5485 17.7369 44.4023 17.7516C43.4408 17.8491 42.5838 17.1496 42.486 16.1889C42.3885 15.2284 43.0883 14.3704 44.0488 14.2729C44.312 14.2459 44.5803 14.2324 44.846 14.2324C49.157 14.2324 52.6643 17.7396 52.6643 22.0506C52.6643 22.7504 52.5715 23.4446 52.3885 24.1141C52.1763 24.8914 51.4715 25.4021 50.703 25.4021Z" fill="#FFA100"/>
<path fill-rule="evenodd" clip-rule="evenodd" d="M57.1584 27.3889C56.9631 27.3889 56.7641 27.3599 56.5679 27.2994C55.5134 26.9734 54.9229 25.8544 55.2486 24.8002C55.5599 23.7934 55.7176 22.7424 55.7176 21.6759C55.7176 15.8509 50.9786 11.1119 45.1536 11.1119C44.6814 11.1119 44.2064 11.1434 43.7426 11.2052C42.6489 11.3502 41.6439 10.5824 41.4979 9.48843C41.3521 8.39468 42.1209 7.38968 43.2146 7.24393C43.8529 7.15893 44.5054 7.11568 45.1536 7.11568C53.1824 7.11568 59.7141 13.6474 59.7141 21.6759C59.7141 23.1427 59.4964 24.5909 59.0669 25.9804C58.8016 26.8382 58.0116 27.3889 57.1584 27.3889Z" fill="#FFA100"/>
</svg>
