<svg width="64" height="64" viewBox="0 0 64 64" fill="none" xmlns="http://www.w3.org/2000/svg">
<path fill-rule="evenodd" clip-rule="evenodd" d="M32 59.7333C16.7083 59.7333 4.26666 47.2917 4.26666 32C4.26666 16.7083 16.7083 4.26666 32 4.26666C47.2917 4.26666 59.7333 16.7083 59.7333 32C59.7333 47.2917 47.2917 59.7333 32 59.7333ZM32 3.2C16.0939 3.2 3.2 16.0939 3.2 32C3.2 47.9061 16.0939 60.8 32 60.8C47.9061 60.8 60.8 47.9061 60.8 32C60.8 16.0939 47.9061 3.2 32 3.2Z" fill="#ADADB6"/>
<path fill-rule="evenodd" clip-rule="evenodd" d="M40.6572 42.5428L21.4572 23.3428L23.3428 21.4572L42.5428 40.6572L40.6572 42.5428Z" fill="#ADADB6"/>
<path fill-rule="evenodd" clip-rule="evenodd" d="M23.3428 42.5428L42.5428 23.3428L40.6572 21.4572L21.4572 40.6572L23.3428 42.5428Z" fill="#ADADB6"/>
</svg>
