<svg width="64" height="64" viewBox="0 0 64 64" fill="none" xmlns="http://www.w3.org/2000/svg">
<path fill-rule="evenodd" clip-rule="evenodd" d="M32 59.7333C16.7083 59.7333 4.26666 47.2917 4.26666 32C4.26666 16.7083 16.7083 4.26666 32 4.26666C47.2917 4.26666 59.7333 16.7083 59.7333 32C59.7333 47.2917 47.2917 59.7333 32 59.7333ZM32 3.2C16.0939 3.2 3.2 16.0939 3.2 32C3.2 47.9061 16.0939 60.8 32 60.8C47.9061 60.8 60.8 47.9061 60.8 32C60.8 16.0939 47.9061 3.2 32 3.2Z" fill="#ADADB6"/>
<path fill-rule="evenodd" clip-rule="evenodd" d="M30.1092 39.0584L30.1129 38.8372C30.1386 37.3188 30.3442 36.078 30.7408 35.1256C31.1394 34.168 31.9851 33.067 33.2526 31.8241C34.5147 30.5737 35.3091 29.7077 35.6526 29.2166C36.0088 28.7127 36.2794 28.1653 36.4636 27.5753C36.6478 26.9853 36.2682 28.174 36.4636 27.5753C36.659 26.9766 36.7593 26.2901 36.7593 25.5185C36.7593 23.965 36.3441 22.7754 35.5389 21.9215C34.7485 21.0585 33.6323 20.6135 32.1637 20.6135C30.6799 20.6135 29.5014 21.039 28.6067 21.8739C27.7279 22.6932 27.268 23.8117 27.2433 25.2546L27.2397 25.4684H24.5333L24.536 25.2483C24.5621 23.106 25.2892 21.3762 26.7275 20.0818C28.161 18.779 29.9789 18.1333 32.1637 18.1333C34.3981 18.1333 36.1839 18.7913 37.4938 20.1282C38.8159 21.4517 39.4667 23.2446 39.4667 25.4803C39.4667 26.8908 39.1466 28.2184 38.5066 29.4601C37.8655 30.6911 36.6522 32.1204 34.9011 33.7321C33.5224 34.8921 32.8202 36.5828 32.8202 38.8409V39.0584H30.1092ZM30.2655 43.9885C30.5948 43.6289 31.0463 43.4593 31.5907 43.4593C32.1226 43.4593 32.5657 43.629 32.8936 43.985C33.227 44.3203 33.3932 44.7386 33.3932 45.225C33.3932 45.7022 33.2246 46.1146 32.8903 46.4491C32.5607 46.7789 32.1186 46.9333 31.5907 46.9333C31.0519 46.9333 30.6026 46.78 30.272 46.4491L30.265 46.4421C29.9588 46.1064 29.8073 45.6962 29.8073 45.225C29.8073 44.7429 29.9581 44.3255 30.2655 43.9885Z" fill="#ADADB6"/>
</svg>
