<svg width="64" height="64" viewBox="0 0 64 64" fill="none" xmlns="http://www.w3.org/2000/svg">
<path fill-rule="evenodd" clip-rule="evenodd" d="M32 64C49.6731 64 64 49.6731 64 32C64 14.3269 49.6731 0 32 0C14.3269 0 0 14.3269 0 32C0 49.6731 14.3269 64 32 64Z" fill="#FFB700"/>
<path d="M16 22C16 20.8954 16.8954 20 18 20H46C47.1046 20 48 20.8954 48 22V47C48 48.1046 47.1046 49 46 49H18C16.8954 49 16 48.1046 16 47V22Z" fill="white"/>
<path fill-rule="evenodd" clip-rule="evenodd" d="M22 22C22 16.4772 26.4772 12 32 12C37.5228 12 42 16.4772 42 22V25C42 30.5228 37.5228 35 32 35C26.4772 35 22 30.5228 22 25V22ZM32 15C28.134 15 25 18.134 25 22V25C25 28.866 28.134 32 32 32C35.866 32 39 28.866 39 25V22C39 18.134 35.866 15 32 15Z" fill="white"/>
</svg>
