<svg width="64" height="64" viewBox="0 0 64 64" fill="none" xmlns="http://www.w3.org/2000/svg">
<path fill-rule="evenodd" clip-rule="evenodd" d="M17.8984 23.4793C16.4964 23.4793 15.3597 22.3348 15.3597 20.9231C15.3597 19.5113 16.4964 18.3669 17.8984 18.3669C19.3004 18.3669 20.4371 19.5113 20.4371 20.9231C20.4371 22.3348 19.3004 23.4793 17.8984 23.4793ZM30.8737 18.3669C32.2758 18.3669 33.4124 19.5113 33.4124 20.9231C33.4124 22.3348 32.2758 23.4793 30.8737 23.4793C29.4717 23.4793 28.3351 22.3348 28.3351 20.9231C28.3351 19.5113 29.4717 18.3669 30.8737 18.3669ZM42.6793 23.7376C43.0724 23.7376 43.4623 23.7496 43.8491 23.771C42.3992 15.8841 34.2893 9.84615 24.5016 9.84615C13.6887 9.84615 4.92307 17.2151 4.92307 26.3052C4.92307 31.2815 7.55017 35.7419 11.7019 38.7599C12.136 39.0755 12.3289 39.6316 12.1944 40.1545L11.2152 43.9586C11.0692 44.5262 11.675 44.9889 12.1756 44.692L16.6008 42.0674C17.0645 41.7924 17.6189 41.7251 18.1358 41.8744C20.1316 42.451 22.273 42.7642 24.5016 42.7642C24.8482 42.7642 25.1927 42.7564 25.5348 42.7414C25.138 41.4891 24.9251 40.1728 24.9251 38.814C24.9251 30.4876 32.8739 23.7376 42.6793 23.7376ZM48.3622 36.5444C47.116 36.5444 46.1056 35.527 46.1056 34.2722C46.1056 33.0173 47.116 32 48.3622 32C49.6085 32 50.6188 33.0173 50.6188 34.2722C50.6188 35.527 49.6085 36.5444 48.3622 36.5444ZM37.0793 36.5444C35.8331 36.5444 34.8228 35.527 34.8228 34.2722C34.8228 33.0173 35.8331 32 37.0793 32C38.3256 32 39.3359 33.0173 39.3359 34.2722C39.3359 35.527 38.3256 36.5444 37.0793 36.5444ZM53.3091 49.3256C56.8379 46.8126 59.0769 43.0674 59.0769 38.8839C59.0769 31.3173 51.7531 25.1834 42.7187 25.1834C33.6844 25.1834 26.3606 31.3173 26.3606 38.8839C26.3606 46.4506 33.6844 52.5845 42.7187 52.5845C44.6894 52.5845 46.5784 52.2922 48.3279 51.7572C48.622 51.6673 48.9397 51.7027 49.2059 51.8574L53.0344 54.0819C53.4365 54.3155 53.9188 53.9436 53.7989 53.4924L52.9535 50.3122C52.8547 49.9409 52.9972 49.5478 53.3091 49.3256Z" fill="#00CB0D"/>
</svg>
